<svg version="1.1" xmlns="http://www.w3.org/2000/svg" viewBox="0 0 1329.9083459487733 734.3514003193303" width="1329.9083459487733" height="734.3514003193303" filter="invert(93%) hue-rotate(180deg)">
  <!-- svg-source:excalidraw -->
  
  <defs>
    <style class="style-fonts">
      @font-face {
        font-family: "Virgil";
        src: url("https://excalidraw.com/Virgil.woff2");
      }
      @font-face {
        font-family: "Cascadia";
        src: url("https://excalidraw.com/Cascadia.woff2");
      }
    </style>
    
  </defs>
  <rect x="0" y="0" width="1329.9083459487733" height="734.3514003193303" fill="#ffffff"></rect><g transform="translate(10 109.18624340529992) rotate(0 228.01979064941412 112.49999999999999)"><text x="0" y="0" font-family="Virgil, Segoe UI Emoji" font-size="20px" fill="#1e1e1e" text-anchor="start" style="white-space: pre;" direction="ltr" dominant-baseline="text-before-edge">JSX is the not a part of react </text><text x="0" y="25" font-family="Virgil, Segoe UI Emoji" font-size="20px" fill="#1e1e1e" text-anchor="start" style="white-space: pre;" direction="ltr" dominant-baseline="text-before-edge">both are different jsx is a HTML like </text><text x="0" y="50" font-family="Virgil, Segoe UI Emoji" font-size="20px" fill="#1e1e1e" text-anchor="start" style="white-space: pre;" direction="ltr" dominant-baseline="text-before-edge">syntax but it is not HTML</text><text x="0" y="75" font-family="Virgil, Segoe UI Emoji" font-size="20px" fill="#1e1e1e" text-anchor="start" style="white-space: pre;" direction="ltr" dominant-baseline="text-before-edge"></text><text x="0" y="100" font-family="Virgil, Segoe UI Emoji" font-size="20px" fill="#1e1e1e" text-anchor="start" style="white-space: pre;" direction="ltr" dominant-baseline="text-before-edge">Jsx make developer life easy because of it's </text><text x="0" y="125" font-family="Virgil, Segoe UI Emoji" font-size="20px" fill="#1e1e1e" text-anchor="start" style="white-space: pre;" direction="ltr" dominant-baseline="text-before-edge">syntax </text><text x="0" y="150" font-family="Virgil, Segoe UI Emoji" font-size="20px" fill="#1e1e1e" text-anchor="start" style="white-space: pre;" direction="ltr" dominant-baseline="text-before-edge">jsx can merge the html and javascript</text><text x="0" y="175" font-family="Virgil, Segoe UI Emoji" font-size="20px" fill="#1e1e1e" text-anchor="start" style="white-space: pre;" direction="ltr" dominant-baseline="text-before-edge">we can easily inject js in the jsx inside the </text><text x="0" y="200" font-family="Virgil, Segoe UI Emoji" font-size="20px" fill="#1e1e1e" text-anchor="start" style="white-space: pre;" direction="ltr" dominant-baseline="text-before-edge">curly braces {} </text></g><g transform="translate(438.9111872818545 10) rotate(0 66.1650390625 16.099999999999998)"><text x="0" y="0" font-family="Helvetica, Segoe UI Emoji" font-size="28px" fill="#1e1e1e" text-anchor="start" style="white-space: pre;" direction="ltr" dominant-baseline="text-before-edge">Episode_3</text></g><g transform="translate(556.6531472267533 120.89570561965799) rotate(0 290.7997741699219 75)"><text x="0" y="0" font-family="Virgil, Segoe UI Emoji" font-size="20px" fill="#1e1e1e" text-anchor="start" style="white-space: pre;" direction="ltr" dominant-baseline="text-before-edge">The code of jsx is Transpiling before reach the javascript</text><text x="0" y="25" font-family="Virgil, Segoe UI Emoji" font-size="20px" fill="#1e1e1e" text-anchor="start" style="white-space: pre;" direction="ltr" dominant-baseline="text-before-edge">engine. with the help of Babel.</text><text x="0" y="50" font-family="Virgil, Segoe UI Emoji" font-size="20px" fill="#1e1e1e" text-anchor="start" style="white-space: pre;" direction="ltr" dominant-baseline="text-before-edge">Babel is works as a compiler which convert the jsx into</text><text x="0" y="75" font-family="Virgil, Segoe UI Emoji" font-size="20px" fill="#1e1e1e" text-anchor="start" style="white-space: pre;" direction="ltr" dominant-baseline="text-before-edge">javascript readable form.</text><text x="0" y="100" font-family="Virgil, Segoe UI Emoji" font-size="20px" fill="#1e1e1e" text-anchor="start" style="white-space: pre;" direction="ltr" dominant-baseline="text-before-edge"></text><text x="0" y="125" font-family="Virgil, Segoe UI Emoji" font-size="20px" fill="#1e1e1e" text-anchor="start" style="white-space: pre;" direction="ltr" dominant-baseline="text-before-edge"></text></g><g transform="translate(240.0016886234073 482.45849306098813) rotate(0 59.669944763183594 12.5)"><text x="0" y="0" font-family="Virgil, Segoe UI Emoji" font-size="20px" fill="#1e1e1e" text-anchor="start" style="white-space: pre;" direction="ltr" dominant-baseline="text-before-edge">Components </text></g><g transform="translate(12.863653324927668 576.9630217825325) rotate(0 139.57989501953125 62.5)"><text x="0" y="0" font-family="Virgil, Segoe UI Emoji" font-size="20px" fill="#1e1e1e" text-anchor="start" style="white-space: pre;" direction="ltr" dominant-baseline="text-before-edge">Class Based components</text><text x="0" y="25" font-family="Virgil, Segoe UI Emoji" font-size="20px" fill="#1e1e1e" text-anchor="start" style="white-space: pre;" direction="ltr" dominant-baseline="text-before-edge"></text><text x="0" y="50" font-family="Virgil, Segoe UI Emoji" font-size="20px" fill="#1e1e1e" text-anchor="start" style="white-space: pre;" direction="ltr" dominant-baseline="text-before-edge">- Old ways </text><text x="0" y="75" font-family="Virgil, Segoe UI Emoji" font-size="20px" fill="#1e1e1e" text-anchor="start" style="white-space: pre;" direction="ltr" dominant-baseline="text-before-edge">- Generally not used in the </text><text x="0" y="100" font-family="Virgil, Segoe UI Emoji" font-size="20px" fill="#1e1e1e" text-anchor="start" style="white-space: pre;" direction="ltr" dominant-baseline="text-before-edge">real world  </text></g><g transform="translate(436.06500725168405 568.1439790444305) rotate(0 111.70990753173828 62.5)"><text x="0" y="0" font-family="Virgil, Segoe UI Emoji" font-size="20px" fill="#1e1e1e" text-anchor="start" style="white-space: pre;" direction="ltr" dominant-baseline="text-before-edge">Functional components </text><text x="0" y="25" font-family="Virgil, Segoe UI Emoji" font-size="20px" fill="#1e1e1e" text-anchor="start" style="white-space: pre;" direction="ltr" dominant-baseline="text-before-edge"></text><text x="0" y="50" font-family="Virgil, Segoe UI Emoji" font-size="20px" fill="#1e1e1e" text-anchor="start" style="white-space: pre;" direction="ltr" dominant-baseline="text-before-edge">- new ways </text><text x="0" y="75" font-family="Virgil, Segoe UI Emoji" font-size="20px" fill="#1e1e1e" text-anchor="start" style="white-space: pre;" direction="ltr" dominant-baseline="text-before-edge">- Mostly used in the </text><text x="0" y="100" font-family="Virgil, Segoe UI Emoji" font-size="20px" fill="#1e1e1e" text-anchor="start" style="white-space: pre;" direction="ltr" dominant-baseline="text-before-edge">real world   </text></g><g stroke-linecap="round"><g transform="translate(229.34659512984524 510.7951809290935) rotate(0 -39.64413458882001 28.789422654578914)"><path d="M0 0 C-11.98 1.03, -58.97 -3.43, -71.9 6.19 C-84.84 15.82, -76.65 49.15, -77.59 57.74 M0 0 C-11.98 1.03, -58.97 -3.43, -71.9 6.19 C-84.84 15.82, -76.65 49.15, -77.59 57.74" stroke="#1e1e1e" stroke-width="1" fill="none"></path></g><g transform="translate(229.34659512984524 510.7951809290935) rotate(0 -39.64413458882001 28.789422654578914)"><path d="M-77.59 57.74 L-84.75 44.56 L-72.09 43.79 L-77.59 57.74" stroke="none" stroke-width="0" fill="#1e1e1e" fill-rule="evenodd"></path><path d="M-77.59 57.74 C-79.9 53.5, -82.2 49.25, -84.75 44.56 M-77.59 57.74 C-79.05 55.05, -80.51 52.37, -84.75 44.56 M-84.75 44.56 C-80.62 44.3, -76.48 44.05, -72.09 43.79 M-84.75 44.56 C-81.13 44.34, -77.52 44.12, -72.09 43.79 M-72.09 43.79 C-73.91 48.41, -75.74 53.03, -77.59 57.74 M-72.09 43.79 C-74.18 49.08, -76.27 54.38, -77.59 57.74 M-77.59 57.74 C-77.59 57.74, -77.59 57.74, -77.59 57.74 M-77.59 57.74 C-77.59 57.74, -77.59 57.74, -77.59 57.74" stroke="#1e1e1e" stroke-width="1" fill="none"></path></g></g><mask></mask><g stroke-linecap="round"><g transform="translate(367.476939495304 510.57171920172664) rotate(0 53.412617536495304 21.208670259413253)"><path d="M0 0 C14.77 1.07, 70.81 -0.65, 88.62 6.42 C106.42 13.49, 103.79 36.42, 106.83 42.42 M0 0 C14.77 1.07, 70.81 -0.65, 88.62 6.42 C106.42 13.49, 103.79 36.42, 106.83 42.42" stroke="#1e1e1e" stroke-width="1" fill="none"></path></g><g transform="translate(367.476939495304 510.57171920172664) rotate(0 53.412617536495304 21.208670259413253)"><path d="M106.83 42.42 L97.83 30.41 L110.24 27.81 L106.83 42.42" stroke="none" stroke-width="0" fill="#1e1e1e" fill-rule="evenodd"></path><path d="M106.83 42.42 C104.44 39.24, 102.06 36.06, 97.83 30.41 M106.83 42.42 C103.25 37.64, 99.67 32.87, 97.83 30.41 M97.83 30.41 C100.4 29.87, 102.97 29.34, 110.24 27.81 M97.83 30.41 C100.39 29.88, 102.96 29.34, 110.24 27.81 M110.24 27.81 C109.4 31.41, 108.56 35.01, 106.83 42.42 M110.24 27.81 C108.91 33.51, 107.57 39.21, 106.83 42.42 M106.83 42.42 C106.83 42.42, 106.83 42.42, 106.83 42.42 M106.83 42.42 C106.83 42.42, 106.83 42.42, 106.83 42.42" stroke="#1e1e1e" stroke-width="1" fill="none"></path></g></g><mask></mask><g transform="translate(109.49551053617915 436.63817209794246) rotate(0 245.36979675292974 12.5)"><text x="0" y="0" font-family="Virgil, Segoe UI Emoji" font-size="20px" fill="#1e1e1e" text-anchor="start" style="white-space: pre;" direction="ltr" dominant-baseline="text-before-edge">Component are the function which return some jsx</text></g><g transform="translate(726.8430520632572 340.66085637035434) rotate(0 173.95986938476562 62.5)"><text x="0" y="0" font-family="Virgil, Segoe UI Emoji" font-size="20px" fill="#1e1e1e" text-anchor="start" style="white-space: pre;" direction="ltr" dominant-baseline="text-before-edge">What is component composition</text><text x="0" y="25" font-family="Virgil, Segoe UI Emoji" font-size="20px" fill="#1e1e1e" text-anchor="start" style="white-space: pre;" direction="ltr" dominant-baseline="text-before-edge"></text><text x="0" y="50" font-family="Virgil, Segoe UI Emoji" font-size="20px" fill="#1e1e1e" text-anchor="start" style="white-space: pre;" direction="ltr" dominant-baseline="text-before-edge">- Putting multiple component into</text><text x="0" y="75" font-family="Virgil, Segoe UI Emoji" font-size="20px" fill="#1e1e1e" text-anchor="start" style="white-space: pre;" direction="ltr" dominant-baseline="text-before-edge">a single components that is called </text><text x="0" y="100" font-family="Virgil, Segoe UI Emoji" font-size="20px" fill="#1e1e1e" text-anchor="start" style="white-space: pre;" direction="ltr" dominant-baseline="text-before-edge">component composition.</text></g><g transform="translate(734.2888391128357 524.3514003193303) rotate(0 292.80975341796875 99.99999999999997)"><text x="0" y="0" font-family="Virgil, Segoe UI Emoji" font-size="20px" fill="#1e1e1e" text-anchor="start" style="white-space: pre;" direction="ltr" dominant-baseline="text-before-edge">Jsx also sanitized the data it does not </text><text x="0" y="25" font-family="Virgil, Segoe UI Emoji" font-size="20px" fill="#1e1e1e" text-anchor="start" style="white-space: pre;" direction="ltr" dominant-baseline="text-before-edge">blindly execute all the data which wrap in to</text><text x="0" y="50" font-family="Virgil, Segoe UI Emoji" font-size="20px" fill="#1e1e1e" text-anchor="start" style="white-space: pre;" direction="ltr" dominant-baseline="text-before-edge">the pair of curly braces.</text><text x="0" y="75" font-family="Virgil, Segoe UI Emoji" font-size="20px" fill="#1e1e1e" text-anchor="start" style="white-space: pre;" direction="ltr" dominant-baseline="text-before-edge"></text><text x="0" y="100" font-family="Virgil, Segoe UI Emoji" font-size="20px" fill="#1e1e1e" text-anchor="start" style="white-space: pre;" direction="ltr" dominant-baseline="text-before-edge">It do sanitization of data and help to overcome </text><text x="0" y="125" font-family="Virgil, Segoe UI Emoji" font-size="20px" fill="#1e1e1e" text-anchor="start" style="white-space: pre;" direction="ltr" dominant-baseline="text-before-edge">some malicious attack from api or other source which </text><text x="0" y="150" font-family="Virgil, Segoe UI Emoji" font-size="20px" fill="#1e1e1e" text-anchor="start" style="white-space: pre;" direction="ltr" dominant-baseline="text-before-edge">steal our browser cookies, session storage, history , saved</text><text x="0" y="175" font-family="Virgil, Segoe UI Emoji" font-size="20px" fill="#1e1e1e" text-anchor="start" style="white-space: pre;" direction="ltr" dominant-baseline="text-before-edge">password etc</text></g></svg>