<svg version="1.1" xmlns="http://www.w3.org/2000/svg" viewBox="0 0 2234.640659120435 736.8048353239425" width="2234.640659120435" height="736.8048353239425" filter="invert(93%) hue-rotate(180deg)">
  <!-- svg-source:excalidraw -->
  
  <defs>
    <style class="style-fonts">
      @font-face {
        font-family: "Virgil";
        src: url("https://excalidraw.com/Virgil.woff2");
      }
      @font-face {
        font-family: "Cascadia";
        src: url("https://excalidraw.com/Cascadia.woff2");
      }
      @font-face {
        font-family: "Assistant";
        src: url("https://excalidraw.com/Assistant-Regular.woff2");
      }
    </style>
    
  </defs>
  <rect x="0" y="0" width="2234.640659120435" height="736.8048353239425" fill="#ffffff"></rect><g transform="translate(235.04935636172718 10) rotate(0 136.9580078125 16.099999999999994)"><text x="0" y="0" font-family="Helvetica, Segoe UI Emoji" font-size="28px" fill="#1e1e1e" text-anchor="start" style="white-space: pre;" direction="ltr" dominant-baseline="text-before-edge">Reconciliation in react</text></g><g stroke-linecap="round" transform="translate(376.7310083078228 116.90629571999014) rotate(0 51.64525082004019 28.832643777335306)"><path d="M14.42 0 C39.99 0, 65.55 0, 88.87 0 M14.42 0 C35.29 0, 56.16 0, 88.87 0 M88.87 0 C98.49 0, 103.29 4.81, 103.29 14.42 M88.87 0 C98.49 0, 103.29 4.81, 103.29 14.42 M103.29 14.42 C103.29 20.69, 103.29 26.97, 103.29 43.25 M103.29 14.42 C103.29 20.59, 103.29 26.76, 103.29 43.25 M103.29 43.25 C103.29 52.86, 98.49 57.67, 88.87 57.67 M103.29 43.25 C103.29 52.86, 98.49 57.67, 88.87 57.67 M88.87 57.67 C67.95 57.67, 47.02 57.67, 14.42 57.67 M88.87 57.67 C72.56 57.67, 56.25 57.67, 14.42 57.67 M14.42 57.67 C4.81 57.67, 0 52.86, 0 43.25 M14.42 57.67 C4.81 57.67, 0 52.86, 0 43.25 M0 43.25 C0 36.85, 0 30.46, 0 14.42 M0 43.25 C0 34.16, 0 25.08, 0 14.42 M0 14.42 C0 4.81, 4.81 0, 14.42 0 M0 14.42 C0 4.81, 4.81 0, 14.42 0" stroke="#1e1e1e" stroke-width="1" fill="none"></path></g><g stroke-linecap="round" transform="translate(125.1584146427166 298.1399312511454) rotate(0 27.88210186486151 29.14946892278951)"><path d="M55.76 29.15 C55.76 30.84, 55.62 32.55, 55.34 34.21 C55.06 35.87, 54.63 37.53, 54.08 39.12 C53.53 40.7, 52.84 42.26, 52.03 43.72 C51.22 45.19, 50.28 46.59, 49.24 47.89 C48.2 49.18, 47.04 50.39, 45.8 51.48 C44.57 52.56, 43.22 53.55, 41.82 54.39 C40.43 55.24, 38.93 55.96, 37.42 56.54 C35.9 57.12, 34.31 57.56, 32.72 57.86 C31.13 58.15, 29.5 58.3, 27.88 58.3 C26.27 58.3, 24.63 58.15, 23.04 57.86 C21.45 57.56, 19.86 57.12, 18.35 56.54 C16.83 55.96, 15.34 55.24, 13.94 54.39 C12.54 53.55, 11.2 52.56, 9.96 51.48 C8.72 50.39, 7.56 49.18, 6.52 47.89 C5.49 46.59, 4.54 45.19, 3.74 43.72 C2.93 42.26, 2.23 40.7, 1.68 39.12 C1.13 37.53, 0.7 35.87, 0.42 34.21 C0.14 32.55, 0 30.84, 0 29.15 C0 27.46, 0.14 25.75, 0.42 24.09 C0.7 22.43, 1.13 20.77, 1.68 19.18 C2.23 17.59, 2.93 16.04, 3.74 14.57 C4.54 13.11, 5.49 11.71, 6.52 10.41 C7.56 9.12, 8.72 7.9, 9.96 6.82 C11.2 5.74, 12.54 4.75, 13.94 3.91 C15.34 3.06, 16.83 2.34, 18.35 1.76 C19.86 1.18, 21.45 0.74, 23.04 0.44 C24.63 0.15, 26.27 0, 27.88 0 C29.5 0, 31.13 0.15, 32.72 0.44 C34.31 0.74, 35.9 1.18, 37.42 1.76 C38.93 2.34, 40.43 3.06, 41.82 3.91 C43.22 4.75, 44.57 5.74, 45.8 6.82 C47.04 7.9, 48.2 9.12, 49.24 10.41 C50.28 11.71, 51.22 13.11, 52.03 14.57 C52.84 16.04, 53.53 17.59, 54.08 19.18 C54.63 20.77, 55.06 22.43, 55.34 24.09 C55.62 25.75, 55.69 28.31, 55.76 29.15 C55.83 29.99, 55.83 28.31, 55.76 29.15" stroke="#1e1e1e" stroke-width="1" fill="none"></path></g><g stroke-linecap="round" transform="translate(209.37387741649172 295.5406508426827) rotate(0 27.88210186486151 29.14946892278948)"><path d="M55.76 29.15 C55.76 30.84, 55.62 32.55, 55.34 34.21 C55.06 35.87, 54.63 37.53, 54.08 39.12 C53.53 40.7, 52.84 42.26, 52.03 43.72 C51.22 45.19, 50.28 46.59, 49.24 47.89 C48.2 49.18, 47.04 50.39, 45.8 51.48 C44.57 52.56, 43.22 53.55, 41.82 54.39 C40.43 55.24, 38.93 55.96, 37.42 56.54 C35.9 57.12, 34.31 57.56, 32.72 57.86 C31.13 58.15, 29.5 58.3, 27.88 58.3 C26.27 58.3, 24.63 58.15, 23.04 57.86 C21.45 57.56, 19.86 57.12, 18.35 56.54 C16.83 55.96, 15.34 55.24, 13.94 54.39 C12.54 53.55, 11.2 52.56, 9.96 51.48 C8.72 50.39, 7.56 49.18, 6.52 47.89 C5.49 46.59, 4.54 45.19, 3.74 43.72 C2.93 42.26, 2.23 40.7, 1.68 39.12 C1.13 37.53, 0.7 35.87, 0.42 34.21 C0.14 32.55, 0 30.84, 0 29.15 C0 27.46, 0.14 25.75, 0.42 24.09 C0.7 22.43, 1.13 20.77, 1.68 19.18 C2.23 17.59, 2.93 16.04, 3.74 14.57 C4.54 13.11, 5.49 11.71, 6.52 10.41 C7.56 9.12, 8.72 7.9, 9.96 6.82 C11.2 5.74, 12.54 4.75, 13.94 3.91 C15.34 3.06, 16.83 2.34, 18.35 1.76 C19.86 1.18, 21.45 0.74, 23.04 0.44 C24.63 0.15, 26.27 0, 27.88 0 C29.5 0, 31.13 0.15, 32.72 0.44 C34.31 0.74, 35.9 1.18, 37.42 1.76 C38.93 2.34, 40.43 3.06, 41.82 3.91 C43.22 4.75, 44.57 5.74, 45.8 6.82 C47.04 7.9, 48.2 9.12, 49.24 10.41 C50.28 11.71, 51.22 13.11, 52.03 14.57 C52.84 16.04, 53.53 17.59, 54.08 19.18 C54.63 20.77, 55.06 22.43, 55.34 24.09 C55.62 25.75, 55.69 28.31, 55.76 29.15 C55.83 29.99, 55.83 28.31, 55.76 29.15" stroke="#1e1e1e" stroke-width="1" fill="none"></path></g><g stroke-linecap="round" transform="translate(301.82721941918817 297.37716178457924) rotate(0 27.88210186486151 29.149468922789538)"><path d="M55.76 29.15 C55.76 30.84, 55.62 32.55, 55.34 34.21 C55.06 35.87, 54.63 37.53, 54.08 39.12 C53.53 40.7, 52.84 42.26, 52.03 43.72 C51.22 45.19, 50.28 46.59, 49.24 47.89 C48.2 49.18, 47.04 50.39, 45.8 51.48 C44.57 52.56, 43.22 53.55, 41.82 54.39 C40.43 55.24, 38.93 55.96, 37.42 56.54 C35.9 57.12, 34.31 57.56, 32.72 57.86 C31.13 58.15, 29.5 58.3, 27.88 58.3 C26.27 58.3, 24.63 58.15, 23.04 57.86 C21.45 57.56, 19.86 57.12, 18.35 56.54 C16.83 55.96, 15.34 55.24, 13.94 54.39 C12.54 53.55, 11.2 52.56, 9.96 51.48 C8.72 50.39, 7.56 49.18, 6.52 47.89 C5.49 46.59, 4.54 45.19, 3.74 43.72 C2.93 42.26, 2.23 40.7, 1.68 39.12 C1.13 37.53, 0.7 35.87, 0.42 34.21 C0.14 32.55, 0 30.84, 0 29.15 C0 27.46, 0.14 25.75, 0.42 24.09 C0.7 22.43, 1.13 20.77, 1.68 19.18 C2.23 17.59, 2.93 16.04, 3.74 14.57 C4.54 13.11, 5.49 11.71, 6.52 10.41 C7.56 9.12, 8.72 7.9, 9.96 6.82 C11.2 5.74, 12.54 4.75, 13.94 3.91 C15.34 3.06, 16.83 2.34, 18.35 1.76 C19.86 1.18, 21.45 0.74, 23.04 0.44 C24.63 0.15, 26.27 0, 27.88 0 C29.5 0, 31.13 0.15, 32.72 0.44 C34.31 0.74, 35.9 1.18, 37.42 1.76 C38.93 2.34, 40.43 3.06, 41.82 3.91 C43.22 4.75, 44.57 5.74, 45.8 6.82 C47.04 7.9, 48.2 9.12, 49.24 10.41 C50.28 11.71, 51.22 13.11, 52.03 14.57 C52.84 16.04, 53.53 17.59, 54.08 19.18 C54.63 20.77, 55.06 22.43, 55.34 24.09 C55.62 25.75, 55.69 28.31, 55.76 29.15 C55.83 29.99, 55.83 28.31, 55.76 29.15" stroke="#1e1e1e" stroke-width="1" fill="none"></path></g><g stroke-linecap="round" transform="translate(393.01320765917865 297.946265782881) rotate(0 27.88210186486151 29.14946892278948)"><path d="M55.76 29.15 C55.76 30.84, 55.62 32.55, 55.34 34.21 C55.06 35.87, 54.63 37.53, 54.08 39.12 C53.53 40.7, 52.84 42.26, 52.03 43.72 C51.22 45.19, 50.28 46.59, 49.24 47.89 C48.2 49.18, 47.04 50.39, 45.8 51.48 C44.57 52.56, 43.22 53.55, 41.82 54.39 C40.43 55.24, 38.93 55.96, 37.42 56.54 C35.9 57.12, 34.31 57.56, 32.72 57.86 C31.13 58.15, 29.5 58.3, 27.88 58.3 C26.27 58.3, 24.63 58.15, 23.04 57.86 C21.45 57.56, 19.86 57.12, 18.35 56.54 C16.83 55.96, 15.34 55.24, 13.94 54.39 C12.54 53.55, 11.2 52.56, 9.96 51.48 C8.72 50.39, 7.56 49.18, 6.52 47.89 C5.49 46.59, 4.54 45.19, 3.74 43.72 C2.93 42.26, 2.23 40.7, 1.68 39.12 C1.13 37.53, 0.7 35.87, 0.42 34.21 C0.14 32.55, 0 30.84, 0 29.15 C0 27.46, 0.14 25.75, 0.42 24.09 C0.7 22.43, 1.13 20.77, 1.68 19.18 C2.23 17.59, 2.93 16.04, 3.74 14.57 C4.54 13.11, 5.49 11.71, 6.52 10.41 C7.56 9.12, 8.72 7.9, 9.96 6.82 C11.2 5.74, 12.54 4.75, 13.94 3.91 C15.34 3.06, 16.83 2.34, 18.35 1.76 C19.86 1.18, 21.45 0.74, 23.04 0.44 C24.63 0.15, 26.27 0, 27.88 0 C29.5 0, 31.13 0.15, 32.72 0.44 C34.31 0.74, 35.9 1.18, 37.42 1.76 C38.93 2.34, 40.43 3.06, 41.82 3.91 C43.22 4.75, 44.57 5.74, 45.8 6.82 C47.04 7.9, 48.2 9.12, 49.24 10.41 C50.28 11.71, 51.22 13.11, 52.03 14.57 C52.84 16.04, 53.53 17.59, 54.08 19.18 C54.63 20.77, 55.06 22.43, 55.34 24.09 C55.62 25.75, 55.69 28.31, 55.76 29.15 C55.83 29.99, 55.83 28.31, 55.76 29.15" stroke="#1e1e1e" stroke-width="1" fill="none"></path></g><g stroke-linecap="round" transform="translate(488.0013103681757 294.71330849306537) rotate(0 27.88210186486151 29.14946892278948)"><path d="M55.76 29.15 C55.76 30.84, 55.62 32.55, 55.34 34.21 C55.06 35.87, 54.63 37.53, 54.08 39.12 C53.53 40.7, 52.84 42.26, 52.03 43.72 C51.22 45.19, 50.28 46.59, 49.24 47.89 C48.2 49.18, 47.04 50.39, 45.8 51.48 C44.57 52.56, 43.22 53.55, 41.82 54.39 C40.43 55.24, 38.93 55.96, 37.42 56.54 C35.9 57.12, 34.31 57.56, 32.72 57.86 C31.13 58.15, 29.5 58.3, 27.88 58.3 C26.27 58.3, 24.63 58.15, 23.04 57.86 C21.45 57.56, 19.86 57.12, 18.35 56.54 C16.83 55.96, 15.34 55.24, 13.94 54.39 C12.54 53.55, 11.2 52.56, 9.96 51.48 C8.72 50.39, 7.56 49.18, 6.52 47.89 C5.49 46.59, 4.54 45.19, 3.74 43.72 C2.93 42.26, 2.23 40.7, 1.68 39.12 C1.13 37.53, 0.7 35.87, 0.42 34.21 C0.14 32.55, 0 30.84, 0 29.15 C0 27.46, 0.14 25.75, 0.42 24.09 C0.7 22.43, 1.13 20.77, 1.68 19.18 C2.23 17.59, 2.93 16.04, 3.74 14.57 C4.54 13.11, 5.49 11.71, 6.52 10.41 C7.56 9.12, 8.72 7.9, 9.96 6.82 C11.2 5.74, 12.54 4.75, 13.94 3.91 C15.34 3.06, 16.83 2.34, 18.35 1.76 C19.86 1.18, 21.45 0.74, 23.04 0.44 C24.63 0.15, 26.27 0, 27.88 0 C29.5 0, 31.13 0.15, 32.72 0.44 C34.31 0.74, 35.9 1.18, 37.42 1.76 C38.93 2.34, 40.43 3.06, 41.82 3.91 C43.22 4.75, 44.57 5.74, 45.8 6.82 C47.04 7.9, 48.2 9.12, 49.24 10.41 C50.28 11.71, 51.22 13.11, 52.03 14.57 C52.84 16.04, 53.53 17.59, 54.08 19.18 C54.63 20.77, 55.06 22.43, 55.34 24.09 C55.62 25.75, 55.69 28.31, 55.76 29.15 C55.83 29.99, 55.83 28.31, 55.76 29.15" stroke="#1e1e1e" stroke-width="1" fill="none"></path></g><g stroke-linecap="round" transform="translate(559.5430759722259 293.38140843775284) rotate(0 27.88210186486151 29.149468922789538)"><path d="M55.76 29.15 C55.76 30.84, 55.62 32.55, 55.34 34.21 C55.06 35.87, 54.63 37.53, 54.08 39.12 C53.53 40.7, 52.84 42.26, 52.03 43.72 C51.22 45.19, 50.28 46.59, 49.24 47.89 C48.2 49.18, 47.04 50.39, 45.8 51.48 C44.57 52.56, 43.22 53.55, 41.82 54.39 C40.43 55.24, 38.93 55.96, 37.42 56.54 C35.9 57.12, 34.31 57.56, 32.72 57.86 C31.13 58.15, 29.5 58.3, 27.88 58.3 C26.27 58.3, 24.63 58.15, 23.04 57.86 C21.45 57.56, 19.86 57.12, 18.35 56.54 C16.83 55.96, 15.34 55.24, 13.94 54.39 C12.54 53.55, 11.2 52.56, 9.96 51.48 C8.72 50.39, 7.56 49.18, 6.52 47.89 C5.49 46.59, 4.54 45.19, 3.74 43.72 C2.93 42.26, 2.23 40.7, 1.68 39.12 C1.13 37.53, 0.7 35.87, 0.42 34.21 C0.14 32.55, 0 30.84, 0 29.15 C0 27.46, 0.14 25.75, 0.42 24.09 C0.7 22.43, 1.13 20.77, 1.68 19.18 C2.23 17.59, 2.93 16.04, 3.74 14.57 C4.54 13.11, 5.49 11.71, 6.52 10.41 C7.56 9.12, 8.72 7.9, 9.96 6.82 C11.2 5.74, 12.54 4.75, 13.94 3.91 C15.34 3.06, 16.83 2.34, 18.35 1.76 C19.86 1.18, 21.45 0.74, 23.04 0.44 C24.63 0.15, 26.27 0, 27.88 0 C29.5 0, 31.13 0.15, 32.72 0.44 C34.31 0.74, 35.9 1.18, 37.42 1.76 C38.93 2.34, 40.43 3.06, 41.82 3.91 C43.22 4.75, 44.57 5.74, 45.8 6.82 C47.04 7.9, 48.2 9.12, 49.24 10.41 C50.28 11.71, 51.22 13.11, 52.03 14.57 C52.84 16.04, 53.53 17.59, 54.08 19.18 C54.63 20.77, 55.06 22.43, 55.34 24.09 C55.62 25.75, 55.69 28.31, 55.76 29.15 C55.83 29.99, 55.83 28.31, 55.76 29.15" stroke="#1e1e1e" stroke-width="1" fill="none"></path></g><g stroke-linecap="round" transform="translate(639.3227208051975 293.3168887355906) rotate(0 27.88210186486151 29.149468922789538)"><path d="M55.76 29.15 C55.76 30.84, 55.62 32.55, 55.34 34.21 C55.06 35.87, 54.63 37.53, 54.08 39.12 C53.53 40.7, 52.84 42.26, 52.03 43.72 C51.22 45.19, 50.28 46.59, 49.24 47.89 C48.2 49.18, 47.04 50.39, 45.8 51.48 C44.57 52.56, 43.22 53.55, 41.82 54.39 C40.43 55.24, 38.93 55.96, 37.42 56.54 C35.9 57.12, 34.31 57.56, 32.72 57.86 C31.13 58.15, 29.5 58.3, 27.88 58.3 C26.27 58.3, 24.63 58.15, 23.04 57.86 C21.45 57.56, 19.86 57.12, 18.35 56.54 C16.83 55.96, 15.34 55.24, 13.94 54.39 C12.54 53.55, 11.2 52.56, 9.96 51.48 C8.72 50.39, 7.56 49.18, 6.52 47.89 C5.49 46.59, 4.54 45.19, 3.74 43.72 C2.93 42.26, 2.23 40.7, 1.68 39.12 C1.13 37.53, 0.7 35.87, 0.42 34.21 C0.14 32.55, 0 30.84, 0 29.15 C0 27.46, 0.14 25.75, 0.42 24.09 C0.7 22.43, 1.13 20.77, 1.68 19.18 C2.23 17.59, 2.93 16.04, 3.74 14.57 C4.54 13.11, 5.49 11.71, 6.52 10.41 C7.56 9.12, 8.72 7.9, 9.96 6.82 C11.2 5.74, 12.54 4.75, 13.94 3.91 C15.34 3.06, 16.83 2.34, 18.35 1.76 C19.86 1.18, 21.45 0.74, 23.04 0.44 C24.63 0.15, 26.27 0, 27.88 0 C29.5 0, 31.13 0.15, 32.72 0.44 C34.31 0.74, 35.9 1.18, 37.42 1.76 C38.93 2.34, 40.43 3.06, 41.82 3.91 C43.22 4.75, 44.57 5.74, 45.8 6.82 C47.04 7.9, 48.2 9.12, 49.24 10.41 C50.28 11.71, 51.22 13.11, 52.03 14.57 C52.84 16.04, 53.53 17.59, 54.08 19.18 C54.63 20.77, 55.06 22.43, 55.34 24.09 C55.62 25.75, 55.69 28.31, 55.76 29.15 C55.83 29.99, 55.83 28.31, 55.76 29.15" stroke="#1e1e1e" stroke-width="1" fill="none"></path></g><g stroke-linecap="round"><g transform="translate(372.928920429261 173.9378266219745) rotate(0 -104.24104355255412 58.932628022154205)"><path d="M0 0 C-21.33 7.82, -93.26 27.25, -128 46.89 C-162.75 66.54, -195.07 106.04, -208.48 117.87 M0 0 C-21.33 7.82, -93.26 27.25, -128 46.89 C-162.75 66.54, -195.07 106.04, -208.48 117.87" stroke="#1e1e1e" stroke-width="1" fill="none"></path></g><g transform="translate(372.928920429261 173.9378266219745) rotate(0 -104.24104355255412 58.932628022154205)"><path d="M-208.48 117.87 L-203.39 103.75 L-194.4 112.69 L-208.48 117.87" stroke="none" stroke-width="0" fill="#1e1e1e" fill-rule="evenodd"></path><path d="M-208.48 117.87 C-207.32 114.64, -206.16 111.42, -203.39 103.75 M-208.48 117.87 C-207.14 114.16, -205.81 110.45, -203.39 103.75 M-203.39 103.75 C-201.4 105.73, -199.41 107.71, -194.4 112.69 M-203.39 103.75 C-201.5 105.64, -199.61 107.52, -194.4 112.69 M-194.4 112.69 C-198.55 114.22, -202.7 115.74, -208.48 117.87 M-194.4 112.69 C-197.93 113.99, -201.45 115.28, -208.48 117.87 M-208.48 117.87 C-208.48 117.87, -208.48 117.87, -208.48 117.87 M-208.48 117.87 C-208.48 117.87, -208.48 117.87, -208.48 117.87" stroke="#1e1e1e" stroke-width="1" fill="none"></path></g></g><mask></mask><g stroke-linecap="round"><g transform="translate(381.1667996581822 183.44308620404595) rotate(0 -64.00208295864411 51.645264115262364)"><path d="M0 0 C-14.79 9.61, -67.38 40.45, -88.72 57.67 C-110.05 74.88, -121.46 95.69, -128 103.29 M0 0 C-14.79 9.61, -67.38 40.45, -88.72 57.67 C-110.05 74.88, -121.46 95.69, -128 103.29" stroke="#1e1e1e" stroke-width="1" fill="none"></path></g><g transform="translate(381.1667996581822 183.44308620404595) rotate(0 -64.00208295864411 51.645264115262364)"><path d="M-128 103.29 L-125.04 88.59 L-114.83 96.11 L-128 103.29" stroke="none" stroke-width="0" fill="#1e1e1e" fill-rule="evenodd"></path><path d="M-128 103.29 C-127.08 98.71, -126.16 94.14, -125.04 88.59 M-128 103.29 C-127.25 99.58, -126.51 95.86, -125.04 88.59 M-125.04 88.59 C-121.18 91.43, -117.33 94.27, -114.83 96.11 M-125.04 88.59 C-122.7 90.31, -120.36 92.04, -114.83 96.11 M-114.83 96.11 C-117.65 97.65, -120.46 99.18, -128 103.29 M-114.83 96.11 C-119.81 98.82, -124.78 101.54, -128 103.29 M-128 103.29 C-128 103.29, -128 103.29, -128 103.29 M-128 103.29 C-128 103.29, -128 103.29, -128 103.29" stroke="#1e1e1e" stroke-width="1" fill="none"></path></g></g><mask></mask><g stroke-linecap="round"><g transform="translate(400.8110222941224 182.1757324413401) rotate(0 -35.169479066975555 54.49684996701714)"><path d="M0 0 C-7.18 8.77, -31.37 34.43, -43.09 52.6 C-54.81 70.76, -65.8 99.59, -70.34 108.99 M0 0 C-7.18 8.77, -31.37 34.43, -43.09 52.6 C-54.81 70.76, -65.8 99.59, -70.34 108.99" stroke="#1e1e1e" stroke-width="1" fill="none"></path></g><g transform="translate(400.8110222941224 182.1757324413401) rotate(0 -35.169479066975555 54.49684996701714)"><path d="M-70.34 108.99 L-70.67 94 L-59.06 99.1 L-70.34 108.99" stroke="none" stroke-width="0" fill="#1e1e1e" fill-rule="evenodd"></path><path d="M-70.34 108.99 C-70.46 103.38, -70.58 97.76, -70.67 94 M-70.34 108.99 C-70.44 104.23, -70.55 99.47, -70.67 94 M-70.67 94 C-66.54 95.81, -62.42 97.63, -59.06 99.1 M-70.67 94 C-67.81 95.25, -64.96 96.51, -59.06 99.1 M-59.06 99.1 C-63.45 102.95, -67.83 106.79, -70.34 108.99 M-59.06 99.1 C-63.48 102.98, -67.91 106.86, -70.34 108.99 M-70.34 108.99 C-70.34 108.99, -70.34 108.99, -70.34 108.99 M-70.34 108.99 C-70.34 108.99, -70.34 108.99, -70.34 108.99" stroke="#1e1e1e" stroke-width="1" fill="none"></path></g></g><mask></mask><g stroke-linecap="round"><g transform="translate(422.9899524554743 183.44308620404595) rotate(0 -6.0199968489637286 53.22946961386688)"><path d="M0 0 C-2.01 17.74, -10.03 88.72, -12.04 106.46 M0 0 C-2.01 17.74, -10.03 88.72, -12.04 106.46" stroke="#1e1e1e" stroke-width="1" fill="none"></path></g><g transform="translate(422.9899524554743 183.44308620404595) rotate(0 -6.0199968489637286 53.22946961386688)"><path d="M-12.04 106.46 L-16.81 92.24 L-4.21 93.66 L-12.04 106.46" stroke="none" stroke-width="0" fill="#1e1e1e" fill-rule="evenodd"></path><path d="M-12.04 106.46 C-13.15 103.16, -14.25 99.86, -16.81 92.24 M-12.04 106.46 C-13.48 102.18, -14.91 97.9, -16.81 92.24 M-16.81 92.24 C-12.82 92.69, -8.83 93.14, -4.21 93.66 M-16.81 92.24 C-12.88 92.68, -8.95 93.13, -4.21 93.66 M-4.21 93.66 C-7.28 98.67, -10.34 103.68, -12.04 106.46 M-4.21 93.66 C-5.85 96.34, -7.49 99.03, -12.04 106.46 M-12.04 106.46 C-12.04 106.46, -12.04 106.46, -12.04 106.46 M-12.04 106.46 C-12.04 106.46, -12.04 106.46, -12.04 106.46" stroke="#1e1e1e" stroke-width="1" fill="none"></path></g></g><mask></mask><g stroke-linecap="round"><g transform="translate(447.06999303221835 182.8094359131375) rotate(0 25.347341158560937 54.81366181724914)"><path d="M0 0 C5.28 9.61, 23.24 39.39, 31.68 57.67 C40.13 75.94, 47.53 100.97, 50.69 109.63 M0 0 C5.28 9.61, 23.24 39.39, 31.68 57.67 C40.13 75.94, 47.53 100.97, 50.69 109.63" stroke="#1e1e1e" stroke-width="1" fill="none"></path></g><g transform="translate(447.06999303221835 182.8094359131375) rotate(0 25.347341158560937 54.81366181724914)"><path d="M50.69 109.63 L40.35 98.77 L52.36 94.72 L50.69 109.63" stroke="none" stroke-width="0" fill="#1e1e1e" fill-rule="evenodd"></path><path d="M50.69 109.63 C46.74 105.48, 42.78 101.33, 40.35 98.77 M50.69 109.63 C47.35 106.12, 44.01 102.62, 40.35 98.77 M40.35 98.77 C43.68 97.64, 47.02 96.52, 52.36 94.72 M40.35 98.77 C43.32 97.77, 46.3 96.76, 52.36 94.72 M52.36 94.72 C51.93 98.54, 51.51 102.35, 50.69 109.63 M52.36 94.72 C51.77 99.96, 51.19 105.19, 50.69 109.63 M50.69 109.63 C50.69 109.63, 50.69 109.63, 50.69 109.63 M50.69 109.63 C50.69 109.63, 50.69 109.63, 50.69 109.63" stroke="#1e1e1e" stroke-width="1" fill="none"></path></g></g><mask></mask><g stroke-linecap="round"><g transform="translate(464.8131052527666 180.27467520683692) rotate(0 52.27894099661529 55.76420372972299)"><path d="M0 0 C11.3 9.72, 50.38 39.71, 67.8 58.3 C85.23 76.89, 98.43 102.66, 104.56 111.53 M0 0 C11.3 9.72, 50.38 39.71, 67.8 58.3 C85.23 76.89, 98.43 102.66, 104.56 111.53" stroke="#1e1e1e" stroke-width="1" fill="none"></path></g><g transform="translate(464.8131052527666 180.27467520683692) rotate(0 52.27894099661529 55.76420372972299)"><path d="M104.56 111.53 L92.02 103.29 L102.81 96.63 L104.56 111.53" stroke="none" stroke-width="0" fill="#1e1e1e" fill-rule="evenodd"></path><path d="M104.56 111.53 C99.92 108.48, 95.28 105.43, 92.02 103.29 M104.56 111.53 C99.96 108.51, 95.36 105.48, 92.02 103.29 M92.02 103.29 C95.85 100.93, 99.68 98.56, 102.81 96.63 M92.02 103.29 C95.04 101.43, 98.05 99.57, 102.81 96.63 M102.81 96.63 C103.43 101.88, 104.04 107.13, 104.56 111.53 M102.81 96.63 C103.27 100.59, 103.74 104.55, 104.56 111.53 M104.56 111.53 C104.56 111.53, 104.56 111.53, 104.56 111.53 M104.56 111.53 C104.56 111.53, 104.56 111.53, 104.56 111.53" stroke="#1e1e1e" stroke-width="1" fill="none"></path></g></g><mask></mask><g stroke-linecap="round"><g transform="translate(483.82362441690964 175.20520697512475) rotate(0 81.42842321462695 57.34840922832748)"><path d="M0 0 C16.26 8.34, 70.44 30.94, 97.59 50.06 C124.73 69.18, 151.98 103.92, 162.86 114.7 M0 0 C16.26 8.34, 70.44 30.94, 97.59 50.06 C124.73 69.18, 151.98 103.92, 162.86 114.7" stroke="#1e1e1e" stroke-width="1" fill="none"></path></g><g transform="translate(483.82362441690964 175.20520697512475) rotate(0 81.42842321462695 57.34840922832748)"><path d="M162.86 114.7 L149.01 108.92 L158.38 100.38 L162.86 114.7" stroke="none" stroke-width="0" fill="#1e1e1e" fill-rule="evenodd"></path><path d="M162.86 114.7 C157.51 112.47, 152.17 110.24, 149.01 108.92 M162.86 114.7 C158.3 112.79, 153.74 110.89, 149.01 108.92 M149.01 108.92 C152.41 105.82, 155.81 102.72, 158.38 100.38 M149.01 108.92 C151.76 106.42, 154.5 103.92, 158.38 100.38 M158.38 100.38 C159.31 103.33, 160.23 106.28, 162.86 114.7 M158.38 100.38 C159.48 103.9, 160.58 107.41, 162.86 114.7 M162.86 114.7 C162.86 114.7, 162.86 114.7, 162.86 114.7 M162.86 114.7 C162.86 114.7, 162.86 114.7, 162.86 114.7" stroke="#1e1e1e" stroke-width="1" fill="none"></path></g></g><mask></mask><g stroke-linecap="round" transform="translate(366.55993184545446 487.4659274154726) rotate(0 51.64525082004019 28.832643777335306)"><path d="M14.42 0 C38.77 0, 63.13 0, 88.87 0 M14.42 0 C33.9 0, 53.38 0, 88.87 0 M88.87 0 C98.49 0, 103.29 4.81, 103.29 14.42 M88.87 0 C98.49 0, 103.29 4.81, 103.29 14.42 M103.29 14.42 C103.29 21.96, 103.29 29.51, 103.29 43.25 M103.29 14.42 C103.29 22.83, 103.29 31.25, 103.29 43.25 M103.29 43.25 C103.29 52.86, 98.49 57.67, 88.87 57.67 M103.29 43.25 C103.29 52.86, 98.49 57.67, 88.87 57.67 M88.87 57.67 C71.27 57.67, 53.66 57.67, 14.42 57.67 M88.87 57.67 C73.76 57.67, 58.64 57.67, 14.42 57.67 M14.42 57.67 C4.81 57.67, 0 52.86, 0 43.25 M14.42 57.67 C4.81 57.67, 0 52.86, 0 43.25 M0 43.25 C0 33.88, 0 24.51, 0 14.42 M0 43.25 C0 36.15, 0 29.06, 0 14.42 M0 14.42 C0 4.81, 4.81 0, 14.42 0 M0 14.42 C0 4.81, 4.81 0, 14.42 0" stroke="#1e1e1e" stroke-width="1" fill="none"></path></g><g stroke-linecap="round" transform="translate(291.65614295681985 667.9367934800617) rotate(0 27.88210186486151 29.149468922789538)"><path d="M55.76 29.15 C55.76 30.84, 55.62 32.55, 55.34 34.21 C55.06 35.87, 54.63 37.53, 54.08 39.12 C53.53 40.7, 52.84 42.26, 52.03 43.72 C51.22 45.19, 50.28 46.59, 49.24 47.89 C48.2 49.18, 47.04 50.39, 45.8 51.48 C44.57 52.56, 43.22 53.55, 41.82 54.39 C40.43 55.24, 38.93 55.96, 37.42 56.54 C35.9 57.12, 34.31 57.56, 32.72 57.86 C31.13 58.15, 29.5 58.3, 27.88 58.3 C26.27 58.3, 24.63 58.15, 23.04 57.86 C21.45 57.56, 19.86 57.12, 18.35 56.54 C16.83 55.96, 15.34 55.24, 13.94 54.39 C12.54 53.55, 11.2 52.56, 9.96 51.48 C8.72 50.39, 7.56 49.18, 6.52 47.89 C5.49 46.59, 4.54 45.19, 3.74 43.72 C2.93 42.26, 2.23 40.7, 1.68 39.12 C1.13 37.53, 0.7 35.87, 0.42 34.21 C0.14 32.55, 0 30.84, 0 29.15 C0 27.46, 0.14 25.75, 0.42 24.09 C0.7 22.43, 1.13 20.77, 1.68 19.18 C2.23 17.59, 2.93 16.04, 3.74 14.57 C4.54 13.11, 5.49 11.71, 6.52 10.41 C7.56 9.12, 8.72 7.9, 9.96 6.82 C11.2 5.74, 12.54 4.75, 13.94 3.91 C15.34 3.06, 16.83 2.34, 18.35 1.76 C19.86 1.18, 21.45 0.74, 23.04 0.44 C24.63 0.15, 26.27 0, 27.88 0 C29.5 0, 31.13 0.15, 32.72 0.44 C34.31 0.74, 35.9 1.18, 37.42 1.76 C38.93 2.34, 40.43 3.06, 41.82 3.91 C43.22 4.75, 44.57 5.74, 45.8 6.82 C47.04 7.9, 48.2 9.12, 49.24 10.41 C50.28 11.71, 51.22 13.11, 52.03 14.57 C52.84 16.04, 53.53 17.59, 54.08 19.18 C54.63 20.77, 55.06 22.43, 55.34 24.09 C55.62 25.75, 55.69 28.31, 55.76 29.15 C55.83 29.99, 55.83 28.31, 55.76 29.15" stroke="#1e1e1e" stroke-width="1" fill="none"></path></g><g stroke-linecap="round" transform="translate(382.8421311968103 668.5058974783635) rotate(0 27.88210186486151 29.14946892278948)"><path d="M55.76 29.15 C55.76 30.84, 55.62 32.55, 55.34 34.21 C55.06 35.87, 54.63 37.53, 54.08 39.12 C53.53 40.7, 52.84 42.26, 52.03 43.72 C51.22 45.19, 50.28 46.59, 49.24 47.89 C48.2 49.18, 47.04 50.39, 45.8 51.48 C44.57 52.56, 43.22 53.55, 41.82 54.39 C40.43 55.24, 38.93 55.96, 37.42 56.54 C35.9 57.12, 34.31 57.56, 32.72 57.86 C31.13 58.15, 29.5 58.3, 27.88 58.3 C26.27 58.3, 24.63 58.15, 23.04 57.86 C21.45 57.56, 19.86 57.12, 18.35 56.54 C16.83 55.96, 15.34 55.24, 13.94 54.39 C12.54 53.55, 11.2 52.56, 9.96 51.48 C8.72 50.39, 7.56 49.18, 6.52 47.89 C5.49 46.59, 4.54 45.19, 3.74 43.72 C2.93 42.26, 2.23 40.7, 1.68 39.12 C1.13 37.53, 0.7 35.87, 0.42 34.21 C0.14 32.55, 0 30.84, 0 29.15 C0 27.46, 0.14 25.75, 0.42 24.09 C0.7 22.43, 1.13 20.77, 1.68 19.18 C2.23 17.59, 2.93 16.04, 3.74 14.57 C4.54 13.11, 5.49 11.71, 6.52 10.41 C7.56 9.12, 8.72 7.9, 9.96 6.82 C11.2 5.74, 12.54 4.75, 13.94 3.91 C15.34 3.06, 16.83 2.34, 18.35 1.76 C19.86 1.18, 21.45 0.74, 23.04 0.44 C24.63 0.15, 26.27 0, 27.88 0 C29.5 0, 31.13 0.15, 32.72 0.44 C34.31 0.74, 35.9 1.18, 37.42 1.76 C38.93 2.34, 40.43 3.06, 41.82 3.91 C43.22 4.75, 44.57 5.74, 45.8 6.82 C47.04 7.9, 48.2 9.12, 49.24 10.41 C50.28 11.71, 51.22 13.11, 52.03 14.57 C52.84 16.04, 53.53 17.59, 54.08 19.18 C54.63 20.77, 55.06 22.43, 55.34 24.09 C55.62 25.75, 55.69 28.31, 55.76 29.15 C55.83 29.99, 55.83 28.31, 55.76 29.15" stroke="#1e1e1e" stroke-width="1" fill="none"></path></g><g stroke-linecap="round" transform="translate(477.8302339058074 665.2729401885479) rotate(0 27.88210186486151 29.14946892278948)"><path d="M55.76 29.15 C55.76 30.84, 55.62 32.55, 55.34 34.21 C55.06 35.87, 54.63 37.53, 54.08 39.12 C53.53 40.7, 52.84 42.26, 52.03 43.72 C51.22 45.19, 50.28 46.59, 49.24 47.89 C48.2 49.18, 47.04 50.39, 45.8 51.48 C44.57 52.56, 43.22 53.55, 41.82 54.39 C40.43 55.24, 38.93 55.96, 37.42 56.54 C35.9 57.12, 34.31 57.56, 32.72 57.86 C31.13 58.15, 29.5 58.3, 27.88 58.3 C26.27 58.3, 24.63 58.15, 23.04 57.86 C21.45 57.56, 19.86 57.12, 18.35 56.54 C16.83 55.96, 15.34 55.24, 13.94 54.39 C12.54 53.55, 11.2 52.56, 9.96 51.48 C8.72 50.39, 7.56 49.18, 6.52 47.89 C5.49 46.59, 4.54 45.19, 3.74 43.72 C2.93 42.26, 2.23 40.7, 1.68 39.12 C1.13 37.53, 0.7 35.87, 0.42 34.21 C0.14 32.55, 0 30.84, 0 29.15 C0 27.46, 0.14 25.75, 0.42 24.09 C0.7 22.43, 1.13 20.77, 1.68 19.18 C2.23 17.59, 2.93 16.04, 3.74 14.57 C4.54 13.11, 5.49 11.71, 6.52 10.41 C7.56 9.12, 8.72 7.9, 9.96 6.82 C11.2 5.74, 12.54 4.75, 13.94 3.91 C15.34 3.06, 16.83 2.34, 18.35 1.76 C19.86 1.18, 21.45 0.74, 23.04 0.44 C24.63 0.15, 26.27 0, 27.88 0 C29.5 0, 31.13 0.15, 32.72 0.44 C34.31 0.74, 35.9 1.18, 37.42 1.76 C38.93 2.34, 40.43 3.06, 41.82 3.91 C43.22 4.75, 44.57 5.74, 45.8 6.82 C47.04 7.9, 48.2 9.12, 49.24 10.41 C50.28 11.71, 51.22 13.11, 52.03 14.57 C52.84 16.04, 53.53 17.59, 54.08 19.18 C54.63 20.77, 55.06 22.43, 55.34 24.09 C55.62 25.75, 55.69 28.31, 55.76 29.15 C55.83 29.99, 55.83 28.31, 55.76 29.15" stroke="#1e1e1e" stroke-width="1" fill="none"></path></g><g stroke-linecap="round"><g transform="translate(390.63994583175406 552.7353641368226) rotate(0 -35.169479066975555 54.49684996701717)"><path d="M0 0 C-7.18 8.77, -31.37 34.43, -43.09 52.6 C-54.81 70.76, -65.8 99.59, -70.34 108.99 M0 0 C-7.18 8.77, -31.37 34.43, -43.09 52.6 C-54.81 70.76, -65.8 99.59, -70.34 108.99" stroke="#1e1e1e" stroke-width="1" fill="none"></path></g><g transform="translate(390.63994583175406 552.7353641368226) rotate(0 -35.169479066975555 54.49684996701717)"><path d="M-70.34 108.99 L-70.67 94 L-59.06 99.1 L-70.34 108.99" stroke="none" stroke-width="0" fill="#1e1e1e" fill-rule="evenodd"></path><path d="M-70.34 108.99 C-70.43 104.66, -70.53 100.33, -70.67 94 M-70.34 108.99 C-70.42 105.23, -70.5 101.46, -70.67 94 M-70.67 94 C-66.67 95.75, -62.68 97.51, -59.06 99.1 M-70.67 94 C-66.22 95.96, -61.77 97.91, -59.06 99.1 M-59.06 99.1 C-61.96 101.64, -64.86 104.18, -70.34 108.99 M-59.06 99.1 C-63.08 102.63, -67.1 106.15, -70.34 108.99 M-70.34 108.99 C-70.34 108.99, -70.34 108.99, -70.34 108.99 M-70.34 108.99 C-70.34 108.99, -70.34 108.99, -70.34 108.99" stroke="#1e1e1e" stroke-width="1" fill="none"></path></g></g><mask></mask><g stroke-linecap="round"><g transform="translate(412.81887599310596 554.0027178995284) rotate(0 -6.0199968489637286 53.229469613866854)"><path d="M0 0 C-2.01 17.74, -10.03 88.72, -12.04 106.46 M0 0 C-2.01 17.74, -10.03 88.72, -12.04 106.46" stroke="#1e1e1e" stroke-width="1" fill="none"></path></g><g transform="translate(412.81887599310596 554.0027178995284) rotate(0 -6.0199968489637286 53.229469613866854)"><path d="M-12.04 106.46 L-16.81 92.24 L-4.21 93.66 L-12.04 106.46" stroke="none" stroke-width="0" fill="#1e1e1e" fill-rule="evenodd"></path><path d="M-12.04 106.46 C-13.13 103.2, -14.22 99.95, -16.81 92.24 M-12.04 106.46 C-13.63 101.73, -15.21 97.01, -16.81 92.24 M-16.81 92.24 C-12.8 92.69, -8.79 93.15, -4.21 93.66 M-16.81 92.24 C-13.12 92.66, -9.44 93.07, -4.21 93.66 M-4.21 93.66 C-5.9 96.43, -7.6 99.19, -12.04 106.46 M-4.21 93.66 C-6.67 97.68, -9.13 101.71, -12.04 106.46 M-12.04 106.46 C-12.04 106.46, -12.04 106.46, -12.04 106.46 M-12.04 106.46 C-12.04 106.46, -12.04 106.46, -12.04 106.46" stroke="#1e1e1e" stroke-width="1" fill="none"></path></g></g><mask></mask><g stroke-linecap="round"><g transform="translate(436.89891656985003 553.36906760862) rotate(0 25.347341158560937 54.81366181724917)"><path d="M0 0 C5.28 9.61, 23.24 39.39, 31.68 57.67 C40.13 75.94, 47.53 100.97, 50.69 109.63 M0 0 C5.28 9.61, 23.24 39.39, 31.68 57.67 C40.13 75.94, 47.53 100.97, 50.69 109.63" stroke="#1e1e1e" stroke-width="1" fill="none"></path></g><g transform="translate(436.89891656985003 553.36906760862) rotate(0 25.347341158560937 54.81366181724917)"><path d="M50.69 109.63 L40.35 98.77 L52.36 94.72 L50.69 109.63" stroke="none" stroke-width="0" fill="#1e1e1e" fill-rule="evenodd"></path><path d="M50.69 109.63 C47.37 106.14, 44.04 102.64, 40.35 98.77 M50.69 109.63 C47.95 106.75, 45.21 103.87, 40.35 98.77 M40.35 98.77 C44.44 97.39, 48.53 96.01, 52.36 94.72 M40.35 98.77 C44.18 97.48, 48.01 96.18, 52.36 94.72 M52.36 94.72 C51.94 98.47, 51.52 102.21, 50.69 109.63 M52.36 94.72 C51.71 100.56, 51.06 106.39, 50.69 109.63 M50.69 109.63 C50.69 109.63, 50.69 109.63, 50.69 109.63 M50.69 109.63 C50.69 109.63, 50.69 109.63, 50.69 109.63" stroke="#1e1e1e" stroke-width="1" fill="none"></path></g></g><mask></mask><g transform="translate(822.3242514128443 92.69778721781071) rotate(0 289.8997802734375 37.5)"><text x="0" y="0" font-family="Virgil, Segoe UI Emoji" font-size="20px" fill="#1e1e1e" text-anchor="start" style="white-space: pre;" direction="ltr" dominant-baseline="text-before-edge">For ex -:</text><text x="0" y="25" font-family="Virgil, Segoe UI Emoji" font-size="20px" fill="#1e1e1e" text-anchor="start" style="white-space: pre;" direction="ltr" dominant-baseline="text-before-edge">- The UI has 7 cards and it has to filter only 3 cards </text><text x="0" y="50" font-family="Virgil, Segoe UI Emoji" font-size="20px" fill="#1e1e1e" text-anchor="start" style="white-space: pre;" direction="ltr" dominant-baseline="text-before-edge">so reconciliation algorithm first create the VIRTUAL DOM</text></g><g transform="translate(1594.8170756379536 183.82830355328494) rotate(0 302.7797546386719 62.5)"><text x="0" y="0" font-family="Virgil, Segoe UI Emoji" font-size="20px" fill="#1e1e1e" text-anchor="start" style="white-space: pre;" direction="ltr" dominant-baseline="text-before-edge">DOM is the actual document object model that exists </text><text x="0" y="25" font-family="Virgil, Segoe UI Emoji" font-size="20px" fill="#1e1e1e" text-anchor="start" style="white-space: pre;" direction="ltr" dominant-baseline="text-before-edge">in the browser, while virtual DOM is a lightweight DOM </text><text x="0" y="50" font-family="Virgil, Segoe UI Emoji" font-size="20px" fill="#1e1e1e" text-anchor="start" style="white-space: pre;" direction="ltr" dominant-baseline="text-before-edge">tree constructed in memory. Directly manipulating the DOM </text><text x="0" y="75" font-family="Virgil, Segoe UI Emoji" font-size="20px" fill="#1e1e1e" text-anchor="start" style="white-space: pre;" direction="ltr" dominant-baseline="text-before-edge">may be slow, while using virtual DOM can improve performance</text><text x="0" y="100" font-family="Virgil, Segoe UI Emoji" font-size="20px" fill="#1e1e1e" text-anchor="start" style="white-space: pre;" direction="ltr" dominant-baseline="text-before-edge">because virtual DOM updates only the changed parts.</text></g><g stroke-linecap="round" transform="translate(1561.5136461330253 161.45086792091834) rotate(0 331.56350649370484 89.08932073848558)"><path d="M32 0 C213.2 0, 394.41 0, 631.13 0 M32 0 C270.47 0, 508.94 0, 631.13 0 M631.13 0 C652.46 0, 663.13 10.67, 663.13 32 M631.13 0 C652.46 0, 663.13 10.67, 663.13 32 M663.13 32 C663.13 64.16, 663.13 96.31, 663.13 146.18 M663.13 32 C663.13 66.74, 663.13 101.47, 663.13 146.18 M663.13 146.18 C663.13 167.51, 652.46 178.18, 631.13 178.18 M663.13 146.18 C663.13 167.51, 652.46 178.18, 631.13 178.18 M631.13 178.18 C508.9 178.18, 386.67 178.18, 32 178.18 M631.13 178.18 C500.69 178.18, 370.25 178.18, 32 178.18 M32 178.18 C10.67 178.18, 0 167.51, 0 146.18 M32 178.18 C10.67 178.18, 0 167.51, 0 146.18 M0 146.18 C0 112.22, 0 78.26, 0 32 M0 146.18 C0 109.65, 0 73.12, 0 32 M0 32 C0 10.67, 10.67 0, 32 0 M0 32 C0 10.67, 10.67 0, 32 0" stroke="#1e1e1e" stroke-width="1" fill="none"></path></g><g stroke-linecap="round"><g transform="translate(1406.9535829844208 160.27222239505844) rotate(0 75.17887483719505 3.700047717318853)"><path d="M0 0 C19.6 -2.04, 92.52 -15.55, 117.58 -12.27 C142.64 -8.99, 144.89 14.35, 150.36 19.67 M0 0 C19.6 -2.04, 92.52 -15.55, 117.58 -12.27 C142.64 -8.99, 144.89 14.35, 150.36 19.67" stroke="#1e1e1e" stroke-width="1" fill="none"></path></g><g transform="translate(1406.9535829844208 160.27222239505844) rotate(0 75.17887483719505 3.700047717318853)"><path d="M150.36 19.67 L138.24 10.82 L149.35 4.7 L150.36 19.67" stroke="none" stroke-width="0" fill="#1e1e1e" fill-rule="evenodd"></path><path d="M150.36 19.67 C146.86 17.11, 143.36 14.56, 138.24 10.82 M150.36 19.67 C147.52 17.6, 144.68 15.52, 138.24 10.82 M138.24 10.82 C142.1 8.7, 145.95 6.58, 149.35 4.7 M138.24 10.82 C142.65 8.39, 147.05 5.97, 149.35 4.7 M149.35 4.7 C149.59 8.3, 149.83 11.91, 150.36 19.67 M149.35 4.7 C149.55 7.7, 149.75 10.7, 150.36 19.67 M150.36 19.67 C150.36 19.67, 150.36 19.67, 150.36 19.67 M150.36 19.67 C150.36 19.67, 150.36 19.67, 150.36 19.67" stroke="#1e1e1e" stroke-width="1" fill="none"></path></g></g><mask></mask><g transform="translate(826.3165832291858 198.11615525868345) rotate(0 244.4097900390625 37.5)"><text x="0" y="0" font-family="Virgil, Segoe UI Emoji" font-size="20px" fill="#1e1e1e" text-anchor="start" style="white-space: pre;" direction="ltr" dominant-baseline="text-before-edge">The virtual dom is representation of actual dom.</text><text x="0" y="25" font-family="Virgil, Segoe UI Emoji" font-size="20px" fill="#1e1e1e" text-anchor="start" style="white-space: pre;" direction="ltr" dominant-baseline="text-before-edge">It is just an object</text><text x="0" y="50" font-family="Virgil, Segoe UI Emoji" font-size="20px" fill="#1e1e1e" text-anchor="start" style="white-space: pre;" direction="ltr" dominant-baseline="text-before-edge"></text></g><g transform="translate(838.6084517752839 322.29494868309246) rotate(0 271.0197448730469 75)"><text x="0" y="0" font-family="Virgil, Segoe UI Emoji" font-size="20px" fill="#1e1e1e" text-anchor="start" style="white-space: pre;" direction="ltr" dominant-baseline="text-before-edge">Diff Algorithm </text><text x="0" y="25" font-family="Virgil, Segoe UI Emoji" font-size="20px" fill="#1e1e1e" text-anchor="start" style="white-space: pre;" direction="ltr" dominant-baseline="text-before-edge">- The Diff algo is compare the 2 virtual dom.</text><text x="0" y="50" font-family="Virgil, Segoe UI Emoji" font-size="20px" fill="#1e1e1e" text-anchor="start" style="white-space: pre;" direction="ltr" dominant-baseline="text-before-edge">and the dom with new one. It's make the react fast</text><text x="0" y="75" font-family="Virgil, Segoe UI Emoji" font-size="20px" fill="#1e1e1e" text-anchor="start" style="white-space: pre;" direction="ltr" dominant-baseline="text-before-edge">because it does not update entire dom it just update</text><text x="0" y="100" font-family="Virgil, Segoe UI Emoji" font-size="20px" fill="#1e1e1e" text-anchor="start" style="white-space: pre;" direction="ltr" dominant-baseline="text-before-edge">updated nodes which it found in the another dom.</text><text x="0" y="125" font-family="Virgil, Segoe UI Emoji" font-size="20px" fill="#1e1e1e" text-anchor="start" style="white-space: pre;" direction="ltr" dominant-baseline="text-before-edge"></text></g><g stroke-linecap="round"><g transform="translate(366.37201151642455 130.35367855876373) rotate(0 -178.1786502938027 194.48030223490872)"><path d="M0 0 C-59.39 30.05, -353.98 115.45, -356.36 180.27 C-358.74 245.1, -71.3 354.18, -14.29 388.96 M0 0 C-59.39 30.05, -353.98 115.45, -356.36 180.27 C-358.74 245.1, -71.3 354.18, -14.29 388.96" stroke="#1e1e1e" stroke-width="1" fill="none"></path></g><g transform="translate(366.37201151642455 130.35367855876373) rotate(0 -178.1786502938027 194.48030223490872)"><path d="M-14.29 388.96 L-29.29 388.74 L-23.76 377.33 L-14.29 388.96" stroke="none" stroke-width="0" fill="#1e1e1e" fill-rule="evenodd"></path><path d="M-14.29 388.96 C-18.2 388.9, -22.12 388.85, -29.29 388.74 M-14.29 388.96 C-18.3 388.9, -22.31 388.84, -29.29 388.74 M-29.29 388.74 C-27.72 385.51, -26.16 382.29, -23.76 377.33 M-29.29 388.74 C-27.75 385.58, -26.22 382.41, -23.76 377.33 M-23.76 377.33 C-20.26 381.63, -16.76 385.93, -14.29 388.96 M-23.76 377.33 C-20.03 381.91, -16.3 386.49, -14.29 388.96 M-14.29 388.96 C-14.29 388.96, -14.29 388.96, -14.29 388.96 M-14.29 388.96 C-14.29 388.96, -14.29 388.96, -14.29 388.96" stroke="#1e1e1e" stroke-width="1" fill="none"></path></g></g><mask></mask><g transform="translate(831.7795689440455 531.4655991314058) rotate(0 312.39971923828125 25)"><text x="0" y="0" font-family="Virgil, Segoe UI Emoji" font-size="20px" fill="#1e1e1e" text-anchor="start" style="white-space: pre;" direction="ltr" dominant-baseline="text-before-edge">This whole algorithm is stand for REACT (fibre which comes in </text><text x="0" y="25" font-family="Virgil, Segoe UI Emoji" font-size="20px" fill="#1e1e1e" text-anchor="start" style="white-space: pre;" direction="ltr" dominant-baseline="text-before-edge">React 16 )</text></g></svg>